<svg version="1.1" style="font-family:&quot;Lucida Grande&quot;, &quot;Lucida Sans Unicode&quot;, Verdana, Arial, Helvetica, sans-serif;font-size:12px;" xmlns="http://www.w3.org/2000/svg" width="980" height="400"><desc>Created with Highcharts 3.0.10</desc><defs><clipPath id="highcharts-9"><rect x="0" y="0" width="907" height="280"></rect></clipPath><linearGradient x1="0" y1="0" x2="0" y2="1" id="highcharts-16"><stop offset="0" stop-color="#FEFEFE" stop-opacity="1"></stop><stop offset="1" stop-color="#F6F6F6" stop-opacity="1"></stop></linearGradient><linearGradient x1="0" y1="0" x2="0" y2="1" id="highcharts-17"><stop offset="0" stop-color="#FFF" stop-opacity="1"></stop><stop offset="1" stop-color="#ACF" stop-opacity="1"></stop></linearGradient></defs><rect x="0" y="0" width="980" height="400" rx="5" ry="5" fill="#FFFFFF" class=" highcharts-background"></rect><g class="highcharts-grid" zIndex="1"></g><g class="highcharts-grid" zIndex="1"><path fill="none" d="M 63 279.5 L 970 279.5" stroke="#C0C0C0" stroke-width="1" zIndex="1" opacity="1"></path><path fill="none" d="M 63 335.5 L 970 335.5" stroke="#C0C0C0" stroke-width="1" zIndex="1" opacity="1"></path><path fill="none" d="M 63 54.5 L 970 54.5" stroke="#C0C0C0" stroke-width="1" zIndex="1" opacity="1"></path><path fill="none" d="M 63 111.5 L 970 111.5" stroke="#C0C0C0" stroke-width="1" zIndex="1" opacity="1"></path><path fill="none" d="M 63 167.5 L 970 167.5" stroke="#C0C0C0" stroke-width="1" zIndex="1" opacity="1"></path><path fill="none" d="M 63 223.5 L 970 223.5" stroke="#C0C0C0" stroke-width="1" zIndex="1" opacity="1"></path></g><g class="highcharts-axis" zIndex="2"><path fill="none" d="M 440.5 335 L 440.5 340" stroke="#C0D0E0" stroke-width="1" opacity="1"></path><path fill="none" d="M 465.5 335 L 465.5 340" stroke="#C0D0E0" stroke-width="1" opacity="1"></path><path fill="none" d="M 490.5 335 L 490.5 340" stroke="#C0D0E0" stroke-width="1" opacity="1"></path><path fill="none" d="M 516.5 335 L 516.5 340" stroke="#C0D0E0" stroke-width="1" opacity="1"></path><path fill="none" d="M 541.5 335 L 541.5 340" stroke="#C0D0E0" stroke-width="1" opacity="1"></path><path fill="none" d="M 566.5 335 L 566.5 340" stroke="#C0D0E0" stroke-width="1" opacity="1"></path><path fill="none" d="M 591.5 335 L 591.5 340" stroke="#C0D0E0" stroke-width="1" opacity="1"></path><path fill="none" d="M 616.5 335 L 616.5 340" stroke="#C0D0E0" stroke-width="1" opacity="1"></path><path fill="none" d="M 641.5 335 L 641.5 340" stroke="#C0D0E0" stroke-width="1" opacity="1"></path><path fill="none" d="M 112.5 335 L 112.5 340" stroke="#C0D0E0" stroke-width="1" opacity="1"></path><path fill="none" d="M 138.5 335 L 138.5 340" stroke="#C0D0E0" stroke-width="1" opacity="1"></path><path fill="none" d="M 163.5 335 L 163.5 340" stroke="#C0D0E0" stroke-width="1" opacity="1"></path><path fill="none" d="M 188.5 335 L 188.5 340" stroke="#C0D0E0" stroke-width="1" opacity="1"></path><path fill="none" d="M 213.5 335 L 213.5 340" stroke="#C0D0E0" stroke-width="1" opacity="1"></path><path fill="none" d="M 238.5 335 L 238.5 340" stroke="#C0D0E0" stroke-width="1" opacity="1"></path><path fill="none" d="M 264.5 335 L 264.5 340" stroke="#C0D0E0" stroke-width="1" opacity="1"></path><path fill="none" d="M 289.5 335 L 289.5 340" stroke="#C0D0E0" stroke-width="1" opacity="1"></path><path fill="none" d="M 314.5 335 L 314.5 340" stroke="#C0D0E0" stroke-width="1" opacity="1"></path><path fill="none" d="M 339.5 335 L 339.5 340" stroke="#C0D0E0" stroke-width="1" opacity="1"></path><path fill="none" d="M 364.5 335 L 364.5 340" stroke="#C0D0E0" stroke-width="1" opacity="1"></path><path fill="none" d="M 390.5 335 L 390.5 340" stroke="#C0D0E0" stroke-width="1" opacity="1"></path><path fill="none" d="M 415.5 335 L 415.5 340" stroke="#C0D0E0" stroke-width="1" opacity="1"></path><path fill="none" d="M 667.5 335 L 667.5 340" stroke="#C0D0E0" stroke-width="1" opacity="1"></path><path fill="none" d="M 692.5 335 L 692.5 340" stroke="#C0D0E0" stroke-width="1" opacity="1"></path><path fill="none" d="M 717.5 335 L 717.5 340" stroke="#C0D0E0" stroke-width="1" opacity="1"></path><path fill="none" d="M 742.5 335 L 742.5 340" stroke="#C0D0E0" stroke-width="1" opacity="1"></path><path fill="none" d="M 767.5 335 L 767.5 340" stroke="#C0D0E0" stroke-width="1" opacity="1"></path><path fill="none" d="M 793.5 335 L 793.5 340" stroke="#C0D0E0" stroke-width="1" opacity="1"></path><path fill="none" d="M 818.5 335 L 818.5 340" stroke="#C0D0E0" stroke-width="1" opacity="1"></path><path fill="none" d="M 843.5 335 L 843.5 340" stroke="#C0D0E0" stroke-width="1" opacity="1"></path><path fill="none" d="M 868.5 335 L 868.5 340" stroke="#C0D0E0" stroke-width="1" opacity="1"></path><path fill="none" d="M 893.5 335 L 893.5 340" stroke="#C0D0E0" stroke-width="1" opacity="1"></path><path fill="none" d="M 919.5 335 L 919.5 340" stroke="#C0D0E0" stroke-width="1" opacity="1"></path><path fill="none" d="M 944.5 335 L 944.5 340" stroke="#C0D0E0" stroke-width="1" opacity="1"></path><path fill="none" d="M 969.5 335 L 969.5 340" stroke="#C0D0E0" stroke-width="1" opacity="1"></path><path fill="none" d="M 87.5 335 L 87.5 340" stroke="#C0D0E0" stroke-width="1" opacity="1"></path><path fill="none" d="M 62.5 335 L 62.5 340" stroke="#C0D0E0" stroke-width="1"></path><text x="516.5" y="382.42836100896875" zIndex="7" text-anchor="middle" transform="translate(0,0)" class=" highcharts-xaxis-title" style="color:#000000;font-weight:bold;fill:#000000;" visibility="visible"><tspan x="516.5">Month</tspan></text><path fill="none" d="M 63 335.5 L 970 335.5" stroke="#000000" stroke-width="1" zIndex="7" visibility="visible"></path></g><g class="highcharts-axis" zIndex="2"><text x="24.671875" y="195" zIndex="7" text-anchor="middle" transform="translate(0,0) rotate(270 24.671875 195)" class=" highcharts-yaxis-title" style="color:#000000;font-weight:bold;fill:#000000;" visibility="visible"><tspan x="24.671875">Downloads</tspan></text></g><g class="highcharts-series-group" zIndex="3"><g class="highcharts-series" visibility="visible" zIndex="0.1" transform="translate(63,55) scale(1 1)" clip-path="url(#highcharts-9)"><path fill="none" d="M 12.597222222222221 275.436 C 12.597222222222221 275.436 27.713888888888892 271.0456 37.791666666666664 271.0456 C 47.86944444444445 271.0456 52.908333333333324 272.216 62.98611111111111 272.216 C 73.06388888888888 272.216 78.10277777777777 264.712 88.18055555555554 264.712 C 98.25833333333333 264.712 103.29722222222222 268.4696 113.375 268.4696 C 123.45277777777778 268.4696 128.49166666666665 251.0872 138.56944444444443 251.0872 C 148.6472222222222 251.0872 153.68611111111107 252.7728 163.76388888888889 252.7728 C 173.84166666666664 252.7728 178.88055555555556 249.2224 188.95833333333331 249.2224 C 199.0361111111111 249.2224 204.075 253.8088 214.15277777777777 253.8088 C 224.23055555555555 253.8088 229.26944444444445 251.16224 239.34722222222223 245.7392 C 249.425 240.31616000000002 254.46388888888887 234.7352 264.54166666666663 226.6936 C 274.6194444444444 218.652 279.6583333333333 205.5312 289.7361111111111 205.5312 C 299.81388888888887 205.5312 304.85277777777776 226.4024 314.93055555555554 226.4024 C 325.0083333333333 226.4024 330.0472222222222 219.0272 340.125 219.0272 C 350.2027777777777 219.0272 355.2416666666667 224.2632 365.3194444444444 224.8008 C 375.3972222222222 225.3384 380.436111111111 224.8008 390.51388888888886 225.3384 C 400.5916666666666 225.876 405.6305555555556 228.5864 415.7083333333333 228.5864 C 425.78611111111115 228.5864 430.825 228.55504 440.90277777777777 226.5032 C 450.98055555555555 224.45136 456.01944444444445 220.1248 466.09722222222223 218.3272 C 476.175 216.52960000000002 481.21388888888885 218.3272 491.29166666666663 216.52960000000002 C 501.3694444444444 214.73200000000003 506.4083333333333 205.82240000000002 516.4861111111111 205.82240000000002 C 526.5638888888889 205.82240000000002 531.6027777777778 206.87072000000003 541.6805555555554 209.7704 C 551.7583333333332 212.67008 556.7972222222221 220.3208 566.8749999999999 220.3208 C 576.9527777777777 220.3208 581.9916666666666 206.53136 592.0694444444443 201.7176 C 602.1472222222221 196.90384 607.186111111111 201.7176 617.2638888888888 196.252 C 627.3416666666666 190.78640000000001 632.3805555555555 172.0992 642.4583333333333 172.0992 C 652.536111111111 172.0992 657.5749999999999 185.42159999999998 667.6527777777777 190.5736 C 677.7305555555555 195.7256 682.7694444444444 197.8592 692.8472222222222 197.8592 C 702.925 197.8592 707.9638888888887 193.22016 718.0416666666665 185.5 C 728.1194444444443 177.77983999999998 733.1583333333332 164.1696 743.236111111111 159.2584 C 753.3138888888888 154.3472 758.3527777777775 154.3472 768.4305555555554 154.3472 C 778.5083333333332 154.3472 783.5472222222221 155.792 793.6249999999999 155.792 C 803.7027777777777 155.792 808.7416666666666 116.38480000000001 818.8194444444443 116.38480000000001 C 828.8972222222221 116.38480000000001 833.9361111111109 154.8176 844.0138888888888 154.8176 C 854.0916666666666 154.8176 859.1305555555555 74.37359999999998 869.2083333333333 50.903999999999996 C 879.2861111111112 27.43440000000001 894.4027777777777 27.43440000000001 894.4027777777777 27.43440000000001" stroke="#CC333F" stroke-width="1" zIndex="1" stroke-linejoin="round" stroke-linecap="round"></path><path fill="none" d="M 2.5972222222222214 275.436 L 12.597222222222221 275.436 C 12.597222222222221 275.436 27.713888888888892 271.0456 37.791666666666664 271.0456 C 47.86944444444445 271.0456 52.908333333333324 272.216 62.98611111111111 272.216 C 73.06388888888888 272.216 78.10277777777777 264.712 88.18055555555554 264.712 C 98.25833333333333 264.712 103.29722222222222 268.4696 113.375 268.4696 C 123.45277777777778 268.4696 128.49166666666665 251.0872 138.56944444444443 251.0872 C 148.6472222222222 251.0872 153.68611111111107 252.7728 163.76388888888889 252.7728 C 173.84166666666664 252.7728 178.88055555555556 249.2224 188.95833333333331 249.2224 C 199.0361111111111 249.2224 204.075 253.8088 214.15277777777777 253.8088 C 224.23055555555555 253.8088 229.26944444444445 251.16224 239.34722222222223 245.7392 C 249.425 240.31616000000002 254.46388888888887 234.7352 264.54166666666663 226.6936 C 274.6194444444444 218.652 279.6583333333333 205.5312 289.7361111111111 205.5312 C 299.81388888888887 205.5312 304.85277777777776 226.4024 314.93055555555554 226.4024 C 325.0083333333333 226.4024 330.0472222222222 219.0272 340.125 219.0272 C 350.2027777777777 219.0272 355.2416666666667 224.2632 365.3194444444444 224.8008 C 375.3972222222222 225.3384 380.436111111111 224.8008 390.51388888888886 225.3384 C 400.5916666666666 225.876 405.6305555555556 228.5864 415.7083333333333 228.5864 C 425.78611111111115 228.5864 430.825 228.55504 440.90277777777777 226.5032 C 450.98055555555555 224.45136 456.01944444444445 220.1248 466.09722222222223 218.3272 C 476.175 216.52960000000002 481.21388888888885 218.3272 491.29166666666663 216.52960000000002 C 501.3694444444444 214.73200000000003 506.4083333333333 205.82240000000002 516.4861111111111 205.82240000000002 C 526.5638888888889 205.82240000000002 531.6027777777778 206.87072000000003 541.6805555555554 209.7704 C 551.7583333333332 212.67008 556.7972222222221 220.3208 566.8749999999999 220.3208 C 576.9527777777777 220.3208 581.9916666666666 206.53136 592.0694444444443 201.7176 C 602.1472222222221 196.90384 607.186111111111 201.7176 617.2638888888888 196.252 C 627.3416666666666 190.78640000000001 632.3805555555555 172.0992 642.4583333333333 172.0992 C 652.536111111111 172.0992 657.5749999999999 185.42159999999998 667.6527777777777 190.5736 C 677.7305555555555 195.7256 682.7694444444444 197.8592 692.8472222222222 197.8592 C 702.925 197.8592 707.9638888888887 193.22016 718.0416666666665 185.5 C 728.1194444444443 177.77983999999998 733.1583333333332 164.1696 743.236111111111 159.2584 C 753.3138888888888 154.3472 758.3527777777775 154.3472 768.4305555555554 154.3472 C 778.5083333333332 154.3472 783.5472222222221 155.792 793.6249999999999 155.792 C 803.7027777777777 155.792 808.7416666666666 116.38480000000001 818.8194444444443 116.38480000000001 C 828.8972222222221 116.38480000000001 833.9361111111109 154.8176 844.0138888888888 154.8176 C 854.0916666666666 154.8176 859.1305555555555 74.37359999999998 869.2083333333333 50.903999999999996 C 879.2861111111112 27.43440000000001 894.4027777777777 27.43440000000001 894.4027777777777 27.43440000000001 L 904.4027777777777 27.43440000000001" stroke-linejoin="round" visibility="visible" stroke-opacity="0.0001" stroke="rgb(192,192,192)" stroke-width="21" zIndex="2" class=" highcharts-tracker" style=""></path></g><g class="highcharts-markers highcharts-tracker" visibility="visible" zIndex="0.1" transform="translate(63,55) scale(1 1)" clip-path="none" style=""><path fill="#CC333F" d="M 894 25.934399999999982 C 895.998 25.934399999999982 895.998 28.934399999999982 894 28.934399999999982 C 892.002 28.934399999999982 892.002 25.934399999999982 894 25.934399999999982 Z" stroke-width="1" visibility="inherit"></path><path fill="#CC333F" d="M 869 49.403999999999996 C 870.998 49.403999999999996 870.998 52.403999999999996 869 52.403999999999996 C 867.002 52.403999999999996 867.002 49.403999999999996 869 49.403999999999996 Z" stroke-width="1" visibility="inherit"></path><path fill="#CC333F" d="M 844 153.3176 C 845.998 153.3176 845.998 156.3176 844 156.3176 C 842.002 156.3176 842.002 153.3176 844 153.3176 Z" stroke-width="1" visibility="inherit"></path><path fill="#CC333F" d="M 818 114.88480000000004 C 819.998 114.88480000000004 819.998 117.88480000000004 818 117.88480000000004 C 816.002 117.88480000000004 816.002 114.88480000000004 818 114.88480000000004 Z" stroke-width="1" visibility="inherit"></path><path fill="#CC333F" d="M 793 154.292 C 794.998 154.292 794.998 157.292 793 157.292 C 791.002 157.292 791.002 154.292 793 154.292 Z" stroke-width="1" visibility="inherit"></path><path fill="#CC333F" d="M 768 152.8472 C 769.998 152.8472 769.998 155.8472 768 155.8472 C 766.002 155.8472 766.002 152.8472 768 152.8472 Z" stroke-width="1" visibility="inherit"></path><path fill="#CC333F" d="M 743 157.7584 C 744.998 157.7584 744.998 160.7584 743 160.7584 C 741.002 160.7584 741.002 157.7584 743 157.7584 Z" stroke-width="1" visibility="inherit"></path><path fill="#CC333F" d="M 718 184 C 719.998 184 719.998 187 718 187 C 716.002 187 716.002 184 718 184 Z" stroke-width="1" visibility="inherit"></path><path fill="#CC333F" d="M 692 196.3592 C 693.998 196.3592 693.998 199.3592 692 199.3592 C 690.002 199.3592 690.002 196.3592 692 196.3592 Z" stroke-width="1" visibility="inherit"></path><path fill="#CC333F" d="M 667 189.0736 C 668.998 189.0736 668.998 192.0736 667 192.0736 C 665.002 192.0736 665.002 189.0736 667 189.0736 Z" stroke-width="1" visibility="inherit"></path><path fill="#CC333F" d="M 642 170.5992 C 643.998 170.5992 643.998 173.5992 642 173.5992 C 640.002 173.5992 640.002 170.5992 642 170.5992 Z" stroke-width="1" visibility="inherit"></path><path fill="#CC333F" d="M 617 194.752 C 618.998 194.752 618.998 197.752 617 197.752 C 615.002 197.752 615.002 194.752 617 194.752 Z" stroke-width="1" visibility="inherit"></path><path fill="#CC333F" d="M 592 200.2176 C 593.998 200.2176 593.998 203.2176 592 203.2176 C 590.002 203.2176 590.002 200.2176 592 200.2176 Z" stroke-width="1" visibility="inherit"></path><path fill="#CC333F" d="M 566 218.8208 C 567.998 218.8208 567.998 221.8208 566 221.8208 C 564.002 221.8208 564.002 218.8208 566 218.8208 Z" stroke-width="1" visibility="inherit"></path><path fill="#CC333F" d="M 541 208.2704 C 542.998 208.2704 542.998 211.2704 541 211.2704 C 539.002 211.2704 539.002 208.2704 541 208.2704 Z" visibility="inherit" stroke-width="1"></path><path fill="#CC333F" d="M 516 204.32240000000002 C 517.998 204.32240000000002 517.998 207.32240000000002 516 207.32240000000002 C 514.002 207.32240000000002 514.002 204.32240000000002 516 204.32240000000002 Z" visibility="inherit" stroke-width="1"></path><path fill="#CC333F" d="M 491 215.02960000000002 C 492.998 215.02960000000002 492.998 218.02960000000002 491 218.02960000000002 C 489.002 218.02960000000002 489.002 215.02960000000002 491 215.02960000000002 Z" visibility="inherit" stroke-width="1"></path><path fill="#CC333F" d="M 466 216.8272 C 467.998 216.8272 467.998 219.8272 466 219.8272 C 464.002 219.8272 464.002 216.8272 466 216.8272 Z" visibility="inherit" stroke-width="1"></path><path fill="#CC333F" d="M 440 225.0032 C 441.998 225.0032 441.998 228.0032 440 228.0032 C 438.002 228.0032 438.002 225.0032 440 225.0032 Z" visibility="inherit" stroke-width="1"></path><path fill="#CC333F" d="M 415 227.0864 C 416.998 227.0864 416.998 230.0864 415 230.0864 C 413.002 230.0864 413.002 227.0864 415 227.0864 Z" stroke-width="1" visibility="inherit"></path><path fill="#CC333F" d="M 390 223.8384 C 391.998 223.8384 391.998 226.8384 390 226.8384 C 388.002 226.8384 388.002 223.8384 390 223.8384 Z" stroke-width="1" visibility="inherit"></path><path fill="#CC333F" d="M 365 223.3008 C 366.998 223.3008 366.998 226.3008 365 226.3008 C 363.002 226.3008 363.002 223.3008 365 223.3008 Z" stroke-width="1" visibility="inherit"></path><path fill="#CC333F" d="M 340 217.5272 C 341.998 217.5272 341.998 220.5272 340 220.5272 C 338.002 220.5272 338.002 217.5272 340 217.5272 Z" stroke-width="1" visibility="inherit"></path><path fill="#CC333F" d="M 314 224.9024 C 315.998 224.9024 315.998 227.9024 314 227.9024 C 312.002 227.9024 312.002 224.9024 314 224.9024 Z" stroke-width="1" visibility="inherit"></path><path fill="#CC333F" d="M 289 204.0312 C 290.998 204.0312 290.998 207.0312 289 207.0312 C 287.002 207.0312 287.002 204.0312 289 204.0312 Z" stroke-width="1" visibility="inherit"></path><path fill="#CC333F" d="M 264 225.1936 C 265.998 225.1936 265.998 228.1936 264 228.1936 C 262.002 228.1936 262.002 225.1936 264 225.1936 Z" stroke-width="1" visibility="inherit"></path><path fill="#CC333F" d="M 239.00000000000006 244.2392 C 240.99800000000005 244.2392 240.99800000000005 247.2392 239.00000000000006 247.2392 C 237.00200000000007 247.2392 237.00200000000007 244.2392 239.00000000000006 244.2392 Z" stroke-width="1" visibility="inherit"></path><path fill="#CC333F" d="M 214 252.3088 C 215.998 252.3088 215.998 255.3088 214 255.3088 C 212.002 255.3088 212.002 252.3088 214 252.3088 Z" visibility="inherit"></path><path fill="#CC333F" d="M 188 247.7224 C 189.998 247.7224 189.998 250.7224 188 250.7224 C 186.002 250.7224 186.002 247.7224 188 247.7224 Z" visibility="inherit"></path><path fill="#CC333F" d="M 163 251.2728 C 164.998 251.2728 164.998 254.2728 163 254.2728 C 161.002 254.2728 161.002 251.2728 163 251.2728 Z" visibility="inherit"></path><path fill="#CC333F" d="M 138 249.5872 C 139.998 249.5872 139.998 252.5872 138 252.5872 C 136.002 252.5872 136.002 249.5872 138 249.5872 Z" visibility="inherit"></path><path fill="#CC333F" d="M 113 266.9696 C 114.998 266.9696 114.998 269.9696 113 269.9696 C 111.002 269.9696 111.002 266.9696 113 266.9696 Z" visibility="inherit"></path><path fill="#CC333F" d="M 88 263.212 C 89.998 263.212 89.998 266.212 88 266.212 C 86.002 266.212 86.002 263.212 88 263.212 Z" visibility="inherit"></path><path fill="#CC333F" d="M 62 270.716 C 63.998 270.716 63.998 273.716 62 273.716 C 60.002 273.716 60.002 270.716 62 270.716 Z" visibility="inherit"></path><path fill="#CC333F" d="M 37 269.5456 C 38.998 269.5456 38.998 272.5456 37 272.5456 C 35.002 272.5456 35.002 269.5456 37 269.5456 Z" visibility="inherit" stroke-width="1"></path><path fill="#CC333F" d="M 12 273.936 C 13.998 273.936 13.998 276.936 12 276.936 C 10.002 276.936 10.002 273.936 12 273.936 Z" visibility="inherit" stroke-width="1"></path></g></g><text x="490" y="25" text-anchor="middle" class="highcharts-title" zIndex="4" style="color:#000000;font-size:16px;fill:#000000;width:916px;"><tspan x="490">NPM downloads per month (npm-stats.com)</tspan></text><text x="490" y="40" text-anchor="middle" class="highcharts-subtitle" zIndex="4" style="color:#000000;fill:#000000;width:916px;"></text><g class="highcharts-axis-labels highcharts-xaxis-labels" zIndex="7"><text x="428.3194444444444" y="348.2763114494309" text-anchor="end" transform="translate(0,0) rotate(-20 428.3194444444444 348.2763114494309)" style="color:#666;cursor:default;font-size:11px;fill:#666;" opacity="1"><tspan x="428.3194444444444">Jun 2015</tspan></text><text x="453.51388888888886" y="348.2763114494309" text-anchor="end" transform="translate(0,0) rotate(-20 453.51388888888886 348.2763114494309)" style="color:#666;cursor:default;font-size:11px;fill:#666;" opacity="1"><tspan x="453.51388888888886">Jul 2015</tspan></text><text x="478.7083333333333" y="348.2763114494309" text-anchor="end" transform="translate(0,0) rotate(-20 478.7083333333333 348.2763114494309)" style="color:#666;cursor:default;font-size:11px;fill:#666;" opacity="1"><tspan x="478.7083333333333">Aug 2015</tspan></text><text x="503.90277777777777" y="348.2763114494309" text-anchor="end" transform="translate(0,0) rotate(-20 503.90277777777777 348.2763114494309)" style="color:#666;cursor:default;font-size:11px;fill:#666;" opacity="1"><tspan x="503.90277777777777">Sep 2015</tspan></text><text x="529.0972222222222" y="348.2763114494309" text-anchor="end" transform="translate(0,0) rotate(-20 529.0972222222222 348.2763114494309)" style="color:#666;cursor:default;font-size:11px;fill:#666;" opacity="1"><tspan x="529.0972222222222">Oct 2015</tspan></text><text x="554.2916666666667" y="348.2763114494309" text-anchor="end" transform="translate(0,0) rotate(-20 554.2916666666667 348.2763114494309)" style="color:#666;cursor:default;font-size:11px;fill:#666;" opacity="1"><tspan x="554.2916666666667">Nov 2015</tspan></text><text x="579.4861111111111" y="348.2763114494309" text-anchor="end" transform="translate(0,0) rotate(-20 579.4861111111111 348.2763114494309)" style="color:#666;cursor:default;font-size:11px;fill:#666;" opacity="1"><tspan x="579.4861111111111">Dec 2015</tspan></text><text x="604.6805555555555" y="348.2763114494309" text-anchor="end" transform="translate(0,0) rotate(-20 604.6805555555555 348.2763114494309)" style="color:#666;cursor:default;font-size:11px;fill:#666;" opacity="1"><tspan x="604.6805555555555">Jan 2016</tspan></text><text x="629.875" y="348.2763114494309" text-anchor="end" transform="translate(0,0) rotate(-20 629.875 348.2763114494309)" style="color:#666;cursor:default;font-size:11px;fill:#666;" opacity="1"><tspan x="629.875">Feb 2016</tspan></text><text x="75.59722222222217" y="348.2763114494309" text-anchor="end" transform="translate(0,0) rotate(-20 75.59722222222217 348.2763114494309)" style="color:#666;cursor:default;font-size:11px;fill:#666;" opacity="1"><tspan x="75.59722222222217">Apr 2014</tspan></text><text x="100.79166666666674" y="348.2763114494309" text-anchor="end" transform="translate(0,0) rotate(-20 100.79166666666674 348.2763114494309)" style="color:#666;cursor:default;font-size:11px;fill:#666;" opacity="1"><tspan x="100.79166666666674">May 2014</tspan></text><text x="125.98611111111109" y="348.2763114494309" text-anchor="end" transform="translate(0,0) rotate(-20 125.98611111111109 348.2763114494309)" style="color:#666;cursor:default;font-size:11px;fill:#666;" opacity="1"><tspan x="125.98611111111109">Jun 2014</tspan></text><text x="151.18055555555543" y="348.2763114494309" text-anchor="end" transform="translate(0,0) rotate(-20 151.18055555555543 348.2763114494309)" style="color:#666;cursor:default;font-size:11px;fill:#666;" opacity="1"><tspan x="151.18055555555543">Jul 2014</tspan></text><text x="176.375" y="348.2763114494309" text-anchor="end" transform="translate(0,0) rotate(-20 176.375 348.2763114494309)" style="color:#666;cursor:default;font-size:11px;fill:#666;" opacity="1"><tspan x="176.375">Aug 2014</tspan></text><text x="201.56944444444446" y="348.2763114494309" text-anchor="end" transform="translate(0,0) rotate(-20 201.56944444444446 348.2763114494309)" style="color:#666;cursor:default;font-size:11px;fill:#666;" opacity="1"><tspan x="201.56944444444446">Sep 2014</tspan></text><text x="226.7638888888889" y="348.2763114494309" text-anchor="end" transform="translate(0,0) rotate(-20 226.7638888888889 348.2763114494309)" style="color:#666;cursor:default;font-size:11px;fill:#666;" opacity="1"><tspan x="226.7638888888889">Oct 2014</tspan></text><text x="251.95833333333326" y="348.2763114494309" text-anchor="end" transform="translate(0,0) rotate(-20 251.95833333333326 348.2763114494309)" style="color:#666;cursor:default;font-size:11px;fill:#666;" opacity="1"><tspan x="251.95833333333326">Nov 2014</tspan></text><text x="277.15277777777777" y="348.2763114494309" text-anchor="end" transform="translate(0,0) rotate(-20 277.15277777777777 348.2763114494309)" style="color:#666;cursor:default;font-size:11px;fill:#666;" opacity="1"><tspan x="277.15277777777777">Dec 2014</tspan></text><text x="302.34722222222223" y="348.2763114494309" text-anchor="end" transform="translate(0,0) rotate(-20 302.34722222222223 348.2763114494309)" style="color:#666;cursor:default;font-size:11px;fill:#666;" opacity="1"><tspan x="302.34722222222223">Jan 2015</tspan></text><text x="327.5416666666667" y="348.2763114494309" text-anchor="end" transform="translate(0,0) rotate(-20 327.5416666666667 348.2763114494309)" style="color:#666;cursor:default;font-size:11px;fill:#666;" opacity="1"><tspan x="327.5416666666667">Feb 2015</tspan></text><text x="352.7361111111111" y="348.2763114494309" text-anchor="end" transform="translate(0,0) rotate(-20 352.7361111111111 348.2763114494309)" style="color:#666;cursor:default;font-size:11px;fill:#666;" opacity="1"><tspan x="352.7361111111111">Mar 2015</tspan></text><text x="377.93055555555554" y="348.2763114494309" text-anchor="end" transform="translate(0,0) rotate(-20 377.93055555555554 348.2763114494309)" style="color:#666;cursor:default;font-size:11px;fill:#666;" opacity="1"><tspan x="377.93055555555554">Apr 2015</tspan></text><text x="403.125" y="348.2763114494309" text-anchor="end" transform="translate(0,0) rotate(-20 403.125 348.2763114494309)" style="color:#666;cursor:default;font-size:11px;fill:#666;" opacity="1"><tspan x="403.125">May 2015</tspan></text><text x="655.0694444444445" y="348.2763114494309" text-anchor="end" transform="translate(0,0) rotate(-20 655.0694444444445 348.2763114494309)" style="color:#666;cursor:default;font-size:11px;fill:#666;" opacity="1"><tspan x="655.0694444444445">Mar 2016</tspan></text><text x="680.2638888888888" y="348.2763114494309" text-anchor="end" transform="translate(0,0) rotate(-20 680.2638888888888 348.2763114494309)" style="color:#666;cursor:default;font-size:11px;fill:#666;" opacity="1"><tspan x="680.2638888888888">Apr 2016</tspan></text><text x="705.4583333333333" y="348.2763114494309" text-anchor="end" transform="translate(0,0) rotate(-20 705.4583333333333 348.2763114494309)" style="color:#666;cursor:default;font-size:11px;fill:#666;" opacity="1"><tspan x="705.4583333333333">May 2016</tspan></text><text x="730.6527777777777" y="348.2763114494309" text-anchor="end" transform="translate(0,0) rotate(-20 730.6527777777777 348.2763114494309)" style="color:#666;cursor:default;font-size:11px;fill:#666;" opacity="1"><tspan x="730.6527777777777">Jun 2016</tspan></text><text x="755.8472222222222" y="348.2763114494309" text-anchor="end" transform="translate(0,0) rotate(-20 755.8472222222222 348.2763114494309)" style="color:#666;cursor:default;font-size:11px;fill:#666;" opacity="1"><tspan x="755.8472222222222">Jul 2016</tspan></text><text x="781.0416666666666" y="348.2763114494309" text-anchor="end" transform="translate(0,0) rotate(-20 781.0416666666666 348.2763114494309)" style="color:#666;cursor:default;font-size:11px;fill:#666;" opacity="1"><tspan x="781.0416666666666">Aug 2016</tspan></text><text x="806.2361111111111" y="348.2763114494309" text-anchor="end" transform="translate(0,0) rotate(-20 806.2361111111111 348.2763114494309)" style="color:#666;cursor:default;font-size:11px;fill:#666;" opacity="1"><tspan x="806.2361111111111">Sep 2016</tspan></text><text x="831.4305555555555" y="348.2763114494309" text-anchor="end" transform="translate(0,0) rotate(-20 831.4305555555555 348.2763114494309)" style="color:#666;cursor:default;font-size:11px;fill:#666;" opacity="1"><tspan x="831.4305555555555">Oct 2016</tspan></text><text x="856.625" y="348.2763114494309" text-anchor="end" transform="translate(0,0) rotate(-20 856.625 348.2763114494309)" style="color:#666;cursor:default;font-size:11px;fill:#666;" opacity="1"><tspan x="856.625">Nov 2016</tspan></text><text x="881.8194444444443" y="348.2763114494309" text-anchor="end" transform="translate(0,0) rotate(-20 881.8194444444443 348.2763114494309)" style="color:#666;cursor:default;font-size:11px;fill:#666;" opacity="1"><tspan x="881.8194444444443">Dec 2016</tspan></text><text x="907.0138888888887" y="348.2763114494309" text-anchor="end" transform="translate(0,0) rotate(-20 907.0138888888887 348.2763114494309)" style="color:#666;cursor:default;font-size:11px;fill:#666;" opacity="1"><tspan x="907.0138888888887">Jan 2017</tspan></text><text x="932.2083333333333" y="348.2763114494309" text-anchor="end" transform="translate(0,0) rotate(-20 932.2083333333333 348.2763114494309)" style="color:#666;cursor:default;font-size:11px;fill:#666;" opacity="1"><tspan x="932.2083333333333">Feb 2017</tspan></text><text x="957.4027777777778" y="348.2763114494309" text-anchor="end" transform="translate(0,0) rotate(-20 957.4027777777778 348.2763114494309)" style="color:#666;cursor:default;font-size:11px;fill:#666;" opacity="1"><tspan x="957.4027777777778">Mar 2017</tspan></text></g><g class="highcharts-axis-labels highcharts-yaxis-labels" zIndex="7"><text x="0" y="-9999" text-anchor="end" style="width:303px;color:#666;cursor:default;font-size:11px;fill:#666;"><tspan x="0">0k</tspan></text><text x="55" y="284.5" text-anchor="end" style="width:303px;color:#666;cursor:default;font-size:11px;fill:#666;" opacity="1"><tspan x="55">10k</tspan></text><text x="55" y="228.5" text-anchor="end" style="width:303px;color:#666;cursor:default;font-size:11px;fill:#666;" opacity="1"><tspan x="55">20k</tspan></text><text x="55" y="172.5" text-anchor="end" style="width:303px;color:#666;cursor:default;font-size:11px;fill:#666;" opacity="1"><tspan x="55">30k</tspan></text><text x="55" y="116.5" text-anchor="end" style="width:303px;color:#666;cursor:default;font-size:11px;fill:#666;" opacity="1"><tspan x="55">40k</tspan></text><text x="55" y="60.5" text-anchor="end" style="width:303px;color:#666;cursor:default;font-size:11px;fill:#666;" opacity="1"><tspan x="55">50k</tspan></text></g><g class="highcharts-tooltip" zIndex="8" style="cursor:default;padding:0;white-space:nowrap;" transform="translate(770,60)" opacity="0" visibility="hidden"><rect x="0.5" y="0.5" width="173" height="45" fill="none" fill-opacity="0.85" rx="3" ry="3" isShadow="true" stroke="black" stroke-opacity="0.049999999999999996" stroke-width="5" transform="translate(1, 1)"></rect><rect x="0.5" y="0.5" width="173" height="45" fill="none" fill-opacity="0.85" rx="3" ry="3" isShadow="true" stroke="black" stroke-opacity="0.09999999999999999" stroke-width="3" transform="translate(1, 1)"></rect><rect x="0.5" y="0.5" width="173" height="45" fill="none" fill-opacity="0.85" rx="3" ry="3" isShadow="true" stroke="black" stroke-opacity="0.15" stroke-width="1" transform="translate(1, 1)"></rect><rect x="0.5" y="0.5" width="173" height="45" fill="rgb(255,255,255)" fill-opacity="0.85" rx="3" ry="3" stroke="#CC333F" stroke-width="1" anchorX="186.77743625350706" anchorY="22.07421875"></rect><text x="8" y="21" zIndex="1" style="font-size:12px;color:#333333;fill:#333333;"><tspan style="font-size: 10px" x="8">Mar 2017</tspan><tspan style="fill:#CC333F" x="8" dy="16">generator-jhipster</tspan><tspan dx="0">: </tspan><tspan style="font-weight:bold" dx="0">45,101</tspan></text></g></svg>